<svg xmlns="http://www.w3.org/2000/svg" viewBox="0 0 72.32 73.27"><defs><style>.cls-1{fill:#fff;}</style></defs><g id="Layer_2" data-name="Layer 2"><g id="Layer_1-2" data-name="Layer 1"><path class="cls-1" d="M39.49,59.39l-4-1.06-1.06,4,4,1.06Zm-3.86,2.25.56-2.1,2.09.56-.55,2.09Z"/><path class="cls-1" d="M36.79,69.73l1.05-4-4-1.06-1,4Zm-.16-3.31-.55,2.1L34,68l.55-2.09Z"/><path class="cls-1" d="M44.72,67.58l-4-1.06-1.06,4,4,1.06Zm-3.86,2.25.55-2.1,2.09.55L43,70.38Z"/><path class="cls-1" d="M0,0V73.27H72.32V0ZM1.17,72.1V55.38a166.51,166.51,0,0,1,6,16.72Zm68-70.93h2V2.29a8.3,8.3,0,0,0-1-.6Zm2,70.71v.22h-.22l.22-.21ZM58.22,71.7l-.1.4H55.88l.25-.95Zm-7.63-1.64-.49,2H47.81l.68-2.59ZM6.48,5.62c-.89,2.52-2,4-3.45,4.61a4.88,4.88,0,0,1-1.86.23V1.17H7.6A17.58,17.58,0,0,1,6.48,5.62Zm-3,5.61C5.76,10.23,6.86,7.76,7.5,6A19.35,19.35,0,0,0,8.68,1.17H12c-.09,2.9-1,4.44-2.88,6.56l-.33.37A6.69,6.69,0,0,0,7.37,10a1.84,1.84,0,0,0-.14,1.11,1.79,1.79,0,0,0,1.94,1.24,4.9,4.9,0,0,0,.88-.14l.11,0a4.53,4.53,0,0,1,.74-.14,3,3,0,0,1,2.31,1.07c1.83,2,2.51,5.24,2.76,7.64.53,5.12,3.91,12.32,5.57,15.62l-4.79-1.34A156.08,156.08,0,0,0,11.49,20a11.2,11.2,0,0,0-2.12-3.61A8.28,8.28,0,0,0,8,15.23a15,15,0,0,0-6.82-2.41V11.55A5.82,5.82,0,0,0,3.45,11.23Zm23.79,7.39a56.22,56.22,0,0,0,8.3,9.29l-.11.41,4.75,1.23-.2.79-4.76-1.23-.19.77c-7.7-8.24-13.74-17.53-16.59-25.54-.47-1.31-.63-1.88-.94-3l0-.17h1.38a8.39,8.39,0,0,0,.6,1.5c.13.26.27.55.44,1h0A94.91,94.91,0,0,0,27.24,18.62Zm16-.95-.21.8L38.3,17.25l-1,3.83a39.25,39.25,0,0,1-6.24-6.58A35.6,35.6,0,0,1,25.14,1.17h5.19a28.09,28.09,0,0,0,2.8,7,60,60,0,0,0,5.42,8.17l0,.11Zm9.42,40.08.22-.83,3.62,1,.59-2.35a12.42,12.42,0,0,0,4.37,2.55c1.24.52,2.55,1,3.71,1.37,1.51.52,3,1,4.34,1.65a12.23,12.23,0,0,1,1.22.64l.4.23v1.73c-1.07-.36-1.94-.62-3.14-1l.23-.69ZM16.13,54.91l4,12.1a52.66,52.66,0,0,1,1.36,5.09H16.71a166.08,166.08,0,0,0-5.24-18.5Zm-5.89-1.65.07.19c.11.28.2.54.22.59A156.39,156.39,0,0,1,15.6,72.1H12.84c-.23-1.21-.63-3-1.06-4.48-1.37-4.51-3.38-10.26-5.4-15.45ZM51.76,56.6l-.22.83-1.22-.34.23-.83ZM37.51,50.26,36.31,50,45.38,16.2l2.86.73-9,33.75L38,50.39l-.79,3-.52-.14ZM51.38,24.71l-2.48-.65L49.18,23,48,22.69l.07-.26,1.19.31.3-1.17,2.48.65Zm-.74,8.4-4.75-1.24.2-.79,4.75,1.23,1.34-5.15-4.76-1.24.21-.78,4.76,1.23,1-3.75,2.36.61L52.41,37l-2.6-.65Zm-2.93-4.45L48,27.5l2.48.65-.64,2.48L47.36,30l.28-1.07-1.18-.31.06-.26Zm-1.54,5.95.3-1.17,2.49.65-.65,2.49-2.48-.65.27-1.06-1.18-.31L45,34.3Zm-1.49,5.78.3-1.16,2.48.64-.64,2.49-2.49-.65.28-1.06-1.18-.31.06-.26Zm-1.54,5.94.31-1.16,2.48.65-.65,2.48-2.48-.64.28-1.07-1.19-.3L42,46Zm-4.39,5.32,1.25.29.86-3.38L46.28,50l1.32-5.14L42.86,43.6l.2-.79L47.82,44l1.29-5-4.75-1.23.2-.77,4.75,1.24.2-.78,1.27.31-1.86,7.82,3.2.94-.28,1.21-3.27-.9L46.36,55.1l3.06.85-.23.83-11-3.06ZM49.54,16.72l.06-.26,1.19.3.3-1.16,2.48.65-.64,2.48-2.49-.64L50.72,17ZM55.3,47.33l1.27.36a15.87,15.87,0,0,0,1.08,1.7L55,48.64ZM44.19,15.05l-.07.26L42.94,15l-.27,1.06-2.49-.64L40.82,13l2.49.64L43,14.75Zm-4.91,3.87,2.48.64-.3,1.16,1.19.31-.07.26L41.4,21l-.28,1.07-2.48-.64Zm1.84,8-.06.26-1.18-.31L39.6,28l-2.48-.64.63-2.49,2.49.64-.3,1.16ZM38.7,31.43l-.29,1.17,1.18.3-.07.26-1.18-.3-.27,1.06-2.49-.64.64-2.49ZM35,45.65,32.56,45l.63-2.49,2.49.64-.3,1.16,1.18.31-.06.26-1.19-.31Zm1.53-5.94-2.48-.64.64-2.49.21.05.15.1.36.25v-.21l1.75.45-.3,1.16,1.19.31L38,39l-1.18-.31ZM31.8,35.18a.42.42,0,0,1,.25-.06,2.29,2.29,0,0,1,1.27.53l.19.12L32.93,38a8.33,8.33,0,0,1-1.05-1.81C31.66,35.61,31.69,35.27,31.8,35.18Zm-2.44,4.64L27.28,47.7l4,1.09-2.38,8.5L4.57,50.44l4.56-16.3Zm1.35,15.49L32.77,48l-4.05-1.09L30.79,39l-1.17-.33c-.43-1.14-1.47-3.94-1.85-4.82a29.42,29.42,0,0,0-3-5l0-.07c-1.79-2.55-3.65-5.2-3.86-8.3A2.84,2.84,0,0,1,21.06,19a1.11,1.11,0,0,1,.94-.64c.57,0,.92,1.22,1.16,2a5.83,5.83,0,0,0,.39,1.11c.74,1.45,1.64,3,2.54,4.41,1.92,3,5.3,5.91,7.76,8.06L34,34l-.07.25,4.76,1.23-.2.77-3-.78c-.37-.25-3.44-2.28-4.32-1.12l-.08.08a1.2,1.2,0,0,0-.29.44,2.42,2.42,0,0,0,.12,1.69,18.58,18.58,0,0,0,1.73,2.76l-.18.71,4.74,1.24-.2.79-4.74-1.23L30.88,46,36,47.31l-.88,3.4,1.18.3-.5,2-2.13-.59-1.41,5.22L32,57.31l-.75-1.18Zm-1,3.43.56-2,.61.94.91,1.39-2.66,9.8c-.56-1.37-1.25-2.92-1.92-4.43-.47-1-.91-2-1.28-2.91l-.09-.21c-.51-1.2-1.22-2.86-1.78-4.19Zm-6.94-2c.6,1.46,1.47,3.56,2.17,5.19s2.38,5.63,3.64,8.92l-.32,1.2H22.57a51.25,51.25,0,0,0-1.45-5.42L17.38,55.26Zm39.07.34c-2.36-1-3.42-1.58-4.47-2.79l1-4a29.47,29.47,0,0,0,7.3,6.29,35.12,35.12,0,0,0,5.43,2.71v1.41L71,60.71a9.47,9.47,0,0,0-1-.54,46.74,46.74,0,0,0-4.45-1.7C64.39,58.08,63.11,57.64,61.88,57.13Zm-3.79-9,.92.26.25-1a21.92,21.92,0,0,0,4.67,4.14,34,34,0,0,0,7.21,4v2.66a34.26,34.26,0,0,1-4.87-2.48A27.21,27.21,0,0,1,58.09,48.12Zm1.52-2L61.22,40l-2.87-.71.22-.8a6.18,6.18,0,0,1,1.77.71,13.16,13.16,0,0,1,3.41,3.41l.12.14c.46.6.95,1.21,1.46,1.76a17.14,17.14,0,0,0,5.81,4.26v5.62a33.14,33.14,0,0,1-6.6-3.72A19.66,19.66,0,0,1,59.61,46.09Zm6.52-2.34c-.5-.53-1-1.14-1.45-1.73l-.08-.1a13.93,13.93,0,0,0-3.71-3.67,7.45,7.45,0,0,0-2-.82l.78-2.75a20.42,20.42,0,0,1,5.95,2.85c.82.57,1.64,1.18,2.44,1.77l.13.09,1,.71c.67.51,1.26,1,2,1.45v6a15.93,15.93,0,0,1-5-3.8ZM60,33.64,62.41,25a13.08,13.08,0,0,1,2.6.22c2.21.44,3.72,2.23,5.32,4.11l.41.49c.16.19.26.33.4.48v10c-.48-.33-.88-.64-1.34-1l-1-.74c-.83-.61-1.71-1.26-2.61-1.88A21.15,21.15,0,0,0,60,33.64Zm5.28-9.52a19.85,19.85,0,0,0-3.56-.37h-.16l0,.16a.52.52,0,0,0,0,.17l-4.56,16,2.9.71-1.6,6.09-3.72-1.05-.91,3.59,3.62,1-1.5,6L47.8,54.28l1.6-6,3.31.91.81-3.48-3.2-.94,1.6-6.73,1.36.34,3.83-16-3.48-.9.06-.25L49,20l.21-.8,4.74,1.2L54.26,19a19.71,19.71,0,0,0,8.86-1.28l.61-.24c1.5-.59,3.07-1.11,4.33-.53a6,6,0,0,1,2.13,2.25l.18.27.24.34a6.59,6.59,0,0,0,.53.68v8.06h0C69.48,26.63,67.78,24.63,65.23,24.12ZM68.52,16a3.91,3.91,0,0,0-1.7-.36,9.83,9.83,0,0,0-3.48.86l-.62.25A18.55,18.55,0,0,1,54.54,18l.7-2.71-5.18-1.34-.3,1.17-1.45-.38.26-1,.93.24.77-3a18.4,18.4,0,0,0,4.45,1h0A17.39,17.39,0,0,0,61,10.27l.2-.08c.82-.32,1.66-.66,2.49-.92a6.65,6.65,0,0,1,3.19-.36c1.81.35,3,1.86,4.22,3.34V18.7l-.06-.09A6.78,6.78,0,0,0,68.52,16ZM67.13,7.85a7.66,7.66,0,0,0-3.73.39c-.91.29-1.83.65-2.77,1a16.61,16.61,0,0,1-5.88,1.57,18,18,0,0,1-4.21-.95L52,4.2,51.13,4l.25-1.17L63.59,5l.72-3.87H66a14.06,14.06,0,0,1,3.69,1.48,7.59,7.59,0,0,1,1.45,1v6.88A7.28,7.28,0,0,0,67.13,7.85Zm-4.33-4L50.44,1.66l-.65,3.05.93.24-1.95,7.73-.94-.24-.59,2.34-.16,0,.59-2.34-.93-.24,2-7.73.8.2.77-3-2.39-.47H63.29ZM49,2.37l-.27,1-.8-.2L47,6.93a26.38,26.38,0,0,1-2.15-3.12,11.77,11.77,0,0,1-1.16-2.64h.5ZM45.49,12.91l.94.24-.26,1-1.45-.38.3-1.16-.32-.09a28,28,0,0,1-5.09-7A22.1,22.1,0,0,1,37.7,1.17h4.86a12.61,12.61,0,0,0,1.33,3.16,30.84,30.84,0,0,0,2.77,3.93Zm-5.65-1.64-1,3.71a61.69,61.69,0,0,1-4.8-7.34,27.81,27.81,0,0,1-2.65-6.47h5.12A24,24,0,0,0,38.65,6a30.09,30.09,0,0,0,4.13,6ZM37,22.26l0,.12,4.75,1.23-.2.79-4.76-1.23-.91,3.55A54.86,54.86,0,0,1,28.15,18a95,95,0,0,1-7.27-14.8c-.18-.44-.32-.72-.45-1A8.54,8.54,0,0,1,20,1.17H24a36.78,36.78,0,0,0,6.14,14A42.37,42.37,0,0,0,37,22.26ZM34.26,32.84l-.12-.12c-2.28-2-5.41-4.77-7.14-7.45A49,49,0,0,1,24.51,21a4.9,4.9,0,0,1-.27-.78l0-.15c-.34-1.15-.8-2.72-2.13-2.8a2.16,2.16,0,0,0-2,1.25l-.12.27a4.16,4.16,0,0,0-.2,1.8C20,24,22,26.72,23.82,29.4l.05.07a28.93,28.93,0,0,1,2.91,4.81c.15.35.54,1.33,1.55,4L23,36.8c-1.63-3.12-5.35-10.74-5.91-16.14-.27-2.57-1-6.09-3.06-8.26A4,4,0,0,0,10.83,11a5.65,5.65,0,0,0-.92.16l-.07,0a4.91,4.91,0,0,1-.72.12c-.37,0-.78-.14-.83-.4a.75.75,0,0,1,.08-.46A5.91,5.91,0,0,1,9.57,8.8c.11-.12.22-.23.32-.36,2-2.27,3-4,3.15-7.27h3.29l.12.43c.33,1.17.49,1.75,1,3.1,3,8.33,9.26,18,17.29,26.41ZM10.49,20.38l0,.06c1.37,3.2,3,7.87,5,14.26l-4.15-1.16A60.12,60.12,0,0,0,7.62,22.75,9.74,9.74,0,0,0,5.8,20.1a10.49,10.49,0,0,0-4.63-2.25V13.91a13.72,13.72,0,0,1,6.22,2.23,6.44,6.44,0,0,1,1.2,1A10.25,10.25,0,0,1,10.49,20.38Zm-.33,12.83-1.84-.52-1.91,6.8C6,37.93,5.33,35.63,5.07,34.32a19.43,19.43,0,0,0-3.9-9V19a9.41,9.41,0,0,1,3.88,1.91,8.18,8.18,0,0,1,1.6,2.37A60,60,0,0,1,10.16,33.21ZM4.31,47c-.78-1.77-1.81-4-2.64-5.77-.18-.37-.34-.75-.5-1.13V27.17A19.65,19.65,0,0,1,4,34.52c.34,1.74,1.19,4.79,1.86,6.92ZM3.12,51.26,5,51.79c2.23,5.65,4.31,11.53,5.72,16.15.34,1.13.76,3.08,1,4.16H8.3A135.5,135.5,0,0,0,1.17,52.83V42.76c.94,2,1.93,4.15,2.68,5.9Zm63.6,11.63-3,9.21H59.14l.29-1.1-4-1.06-.57,2.16H51.12l.67-2.75-4-1-1,3.8H29.51l4.95-18.21ZM66.59,67l0,0a9.32,9.32,0,0,0,4.5,2.09v1a7,7,0,0,1-.78,1,7.74,7.74,0,0,1-1.2,1H66.08c-.16-.24-.31-.49-.45-.74l-.3-.51ZM67,66l.71-2.16c1.34.39,2.28.68,3.48,1.09v3.17a10.7,10.7,0,0,1-1.82-.56,10.35,10.35,0,0,1-2-1.3Z"/><path class="cls-1" d="M53.28,63l-4-1.06-1.06,4,4,1.05Zm-3.85,2.25L50,63.19l2.09.55-.55,2.09Z"/><path class="cls-1" d="M46.36,61.25l-4-1.06-1.06,4,4,1.06ZM42.51,63.5l.55-2.09,2.09.55-.55,2.09Z"/><path class="cls-1" d="M20.41,40.42l-4-1.17-1.18,4.06,4,1.17Zm-3.76,2.09.52-1.81,1.79.52L18.43,43Z"/><path class="cls-1" d="M13.89,38.53l-4-1.17L8.67,41.43l4.05,1.17Zm-3.77,2.09.53-1.8,1.79.52-.53,1.8Z"/><path class="cls-1" d="M11,48.8l1.18-4.07-4-1.17L7,47.62Zm-.27-3.26-.53,1.8-1.79-.52L9,45Z"/><path class="cls-1" d="M17.54,50.68l1.18-4.06-4-1.18L13.5,49.51Zm-.27-3.26-.53,1.81L15,48.71l.53-1.81Z"/><path class="cls-1" d="M60.79,65.06l-4-1.06-1.06,4,4,1Zm-3.85,2.25.55-2.09,2.09.55L59,67.86Z"/><path class="cls-1" d="M27,42.31l-4-1.17-1.17,4.07,4,1.17ZM23.21,44.4l.52-1.8,1.79.52L25,44.92Z"/><path class="cls-1" d="M24.11,52.58l1.17-4.07-4-1.17L20.06,51.4Zm-.28-3.27-.52,1.81-1.79-.52L22,48.8Z"/></g></g></svg>